<?xml version="1.0" encoding="UTF-8"?><svg id="Logo" xmlns="http://www.w3.org/2000/svg" viewBox="0 0 963.99 321.02"><defs><style>.cls-1{fill:#003087;}.cls-2{fill:#0070e0;}.cls-3{fill:#001c64;}</style></defs><path class="cls-1" d="M351.53,154.82c28.92,0,53.47-21.1,57.95-49.69,4.52-28.83-18-53.98-49.93-54.04h-51.44c-1.98,0-3.67,1.44-3.98,3.4l-22.96,145.57c-.36,2.26,1.39,4.31,3.68,4.31h27.22c1.98,0,3.67-1.44,3.98-3.4l6.74-42.75c.31-1.96,2-3.4,3.98-3.4h24.75Zm22.78-50.98c-1.68,10.66-9.92,18.51-25.69,18.51h-20.16l6.11-38.77h19.8c16.3,0,21.61,9.62,19.93,20.26Z"/><path class="cls-1" d="M527.42,96.97h-25.84c-1.98,0-3.67,1.44-3.98,3.4l-.85,5.36h0s-20.06-21.91-55.57-7.12c-20.37,8.49-30.15,26.04-34.31,38.83,0,0-13.22,39.03,16.66,60.47,0,0,27.7,20.64,58.89-1.28l-.54,3.42c-.36,2.26,1.39,4.31,3.68,4.31h25.84c1.98,0,3.67-1.44,3.98-3.4l15.72-99.69c.36-2.26-1.39-4.31-3.68-4.31Zm-37.97,55.09c-2.26,14.3-13.98,24.83-29.01,24.83-2.97,0-5.68-.41-8.12-1.19h0c-11.15-3.58-17.51-14.29-15.68-25.9,2.26-14.3,14.02-24.83,29.05-24.83,2.97,0,5.68,.41,8.12,1.19h0c11.15,3.58,17.47,14.29,15.64,25.9Z"/><path class="cls-2" d="M723.67,154.82c28.92,0,53.47-21.1,57.95-49.69,4.52-28.83-18-53.98-49.93-54.04h-51.44c-1.98,0-3.67,1.44-3.98,3.4l-22.96,145.57c-.36,2.26,1.39,4.31,3.68,4.31h27.22c1.98,0,3.67-1.44,3.98-3.4l6.74-42.75c.31-1.96,2-3.4,3.98-3.4h24.75Zm22.78-50.98c-1.68,10.66-9.92,18.51-25.69,18.51h-20.16l6.11-38.77h19.8c16.3,0,21.61,9.62,19.93,20.26Z"/><path class="cls-2" d="M899.57,96.97h-25.84c-1.98,0-3.67,1.44-3.98,3.4l-.85,5.36h0s-20.06-21.91-55.57-7.12c-20.37,8.49-30.15,26.04-34.31,38.83,0,0-13.22,39.03,16.66,60.47,0,0,27.7,20.64,58.89-1.28l-.54,3.42c-.36,2.26,1.39,4.31,3.68,4.31h25.84c1.98,0,3.67-1.44,3.98-3.4l15.72-99.69c.36-2.26-1.39-4.31-3.68-4.31Zm-37.97,55.09c-2.26,14.3-13.98,24.83-29.01,24.83-2.97,0-5.68-.41-8.12-1.19h0c-11.15-3.58-17.51-14.29-15.68-25.9,2.26-14.3,14.02-24.83,29.05-24.83,2.97,0,5.68,.41,8.12,1.19h0c11.15,3.58,17.47,14.29,15.64,25.9Z"/><path class="cls-1" d="M622.28,99.44l-31.15,52.58-15.81-52.19c-.51-1.7-2.08-2.86-3.85-2.86h-28.11c-2.05,0-3.5,2-2.87,3.95l28.33,87.92-25.62,41.43c-1.24,2.01,.2,4.61,2.57,4.61h30.28c1.76,0,3.4-.92,4.31-2.43l79.12-130.9c1.22-2.01-.23-4.58-2.58-4.58h-30.27c-1.78,0-3.42,.94-4.33,2.47Z"/><path class="cls-2" d="M928.64,54.49l-22.96,145.57c-.36,2.26,1.39,4.31,3.68,4.31h27.22c1.98,0,3.67-1.44,3.98-3.4l22.96-145.57c.36-2.26-1.39-4.31-3.68-4.31h-27.22c-1.98,0-3.67,1.44-3.98,3.4Z"/><g><path class="cls-3" d="M204.02,117.59c-5.84,33.29-33.01,58.47-68.64,58.47h-22.63c-4.62-.01-9.26,4.27-10.03,8.98l-9.92,62.89c-.57,3.57-2.25,4.77-5.87,4.77H50.56c-3.68,0-4.55-1.23-3.98-4.86l4.12-43.47-43.69-2.26c-3.68,0-5.06-2.04-4.48-5.67L32.34,7.42c.57-3.58,2.8-5.12,6.42-5.12H114.35c36.39,0,59.41,24.5,62.23,56.26,21.68,14.66,31.8,34.11,27.43,59.04Z"/><path class="cls-2" d="M61.81,133.94l-11.11,70.42-6.97,44.18c-.57,3.63,2.23,6.91,5.91,6.91h38.43c3.62,0,6.71-2.64,7.27-6.21l10.13-64.21c.56-3.58,3.65-6.21,7.27-6.21h22.63c35.63,0,65.87-26,71.4-61.22,3.92-25.01-8.67-47.76-30.19-59.04-.05,2.62-.28,5.27-.7,7.95-5.53,35.23-35.77,61.22-71.4,61.22h-35.41c-3.62,0-6.71,2.64-7.27,6.21h0Z"/><path class="cls-1" d="M50.71,204.37H5.98c-3.67,0-6.48-3.28-5.91-6.91L30.23,6.21c.56-3.58,3.65-6.21,7.27-6.21H114.35c36.39,0,62.85,26.48,62.23,58.56-9.06-4.75-19.69-7.46-31.35-7.46H81.17c-3.62,0-6.71,2.64-7.27,6.21l-12.09,76.64-11.11,70.42Z"/></g><g><path class="cls-1" d="M682.12,262.98c3.03,0,5.88-2.46,6.36-5.49,.48-3.03-1.59-5.49-4.62-5.49s-5.88,2.46-6.36,5.49c-.48,3.03,1.59,5.49,4.62,5.49m2.89-18.27c7.1,0,11.88,5.68,10.76,12.78-1.12,7.1-7.69,12.69-14.79,12.69s-11.8-5.59-10.68-12.69c1.13-7.1,7.61-12.78,14.71-12.78m-69.64,35.6c4.83-4.16,13.1-12.78,21.21-20.92,7.09-7.1,13.07-7.76,20.19-.76,5.82,5.68,11.42,12.78,16.21,19.03,4.88,6.31,12.67,16.28,18.15,23.89,.73,1.01,.59,2.4-.33,3.24l-10.02,9.27c-1.51,1.4-3.92,1.08-5.01-.67-4.4-7.07-9.91-15.91-13.59-21.34-4.52-6.72-11.24-15.72-13.93-18.46-2.53-2.56-4.41-2.65-7.27,.47-4,4.35-11.55,13.16-15.96,18.27-1.83,2.17-3.72,4.45-5.43,6.54-1.32,1.61-3.77,1.6-5.08,0l-7.16-8.79c-.88-1.08-.69-2.67,.41-3.51,2.51-1.9,4.75-3.78,7.61-6.26"/><path class="cls-1" d="M751.99,307.29c-.51,3.25-1.09,7.51-1.26,10.64-.09,1.74-1.54,3.09-3.27,3.09h-11.68c-1.59,0-2.77-1.48-2.4-3.02,.74-3.13,1.62-7.45,2.14-10.71l4.51-28.5c-9.42,4.33-20.07,8.41-30.04,11.18-1.6,.44-3.27-.34-3.92-1.87l-3.65-8.56c-.6-1.42,.24-3.02,1.74-3.35,16.46-3.66,32.24-10.17,43.25-16.43,9.34-5.3,19.14-12.55,25.79-19.15,1.31-1.3,3.43-1.3,4.7,.04l6.38,6.7c.98,1.03,.89,2.68-.2,3.59-8.16,6.76-16.84,13.15-26.09,18.57l-5.98,37.78Z"/><path class="cls-1" d="M867.2,251.8c2.75,0,5.38-2.27,5.81-5.02,.43-2.75-1.48-5.02-4.22-5.02s-5.38,2.27-5.81,5.02c-.43,2.75,1.48,5.02,4.22,5.02m2.65-16.76c6.44,0,10.9,5.3,9.88,11.74-1.02,6.44-7.16,11.74-13.6,11.74s-10.9-5.3-9.88-11.74c1.02-6.44,7.16-11.74,13.6-11.74m-32.39,17.42l10.64-3.25c1.69-.52,3.49,.39,4.06,2.06,2.78,8.14,6.31,21.04,8.03,28.65,1.71,7.6,4.07,21.55,5.26,31.38,.14,1.18-.58,2.29-1.72,2.64l-12.12,3.76c-2.01,.62-4.08-.78-4.24-2.88-.8-10.6-1.89-20.64-3.71-29.79-1.72-9.03-5.09-21.66-7.81-29.41-.46-1.32,.27-2.75,1.61-3.16m-23.08-2.17l10.23,2.21c1.5,.32,2.34,1.92,1.76,3.34-1.22,2.97-2.6,6.55-3.14,8.18-2.45,7.1-7.92,19.5-12.17,27.84-4.38,8.61-11.12,18.8-16.68,25.7-.94,1.16-2.54,1.53-3.9,.92l-9.77-4.41c-1.5-.68-1.93-2.6-.85-3.85,6.36-7.32,12.68-16.41,16.87-24.13,5.53-10.13,10.58-21.78,13.8-33.48,.46-1.67,2.16-2.68,3.85-2.31"/><path class="cls-1" d="M916.51,315.04c-.7-.66-.97-1.67-.66-2.58,.62-1.84,1.21-4.12,1.57-6.4l8.61-54.35c.33-2.09,.47-4.08,.53-5.64,.07-1.77,1.51-3.16,3.28-3.16h10.48c1.62,0,2.8,1.53,2.38,3.09-.43,1.6-.92,3.66-1.26,5.81l-7.38,46.58c6.78-2.63,14.8-8.37,21.57-15.52,1.16-1.22,3.17-.97,3.96,.52l4.01,7.48c.69,1.28,.45,2.86-.58,3.89-9.33,9.23-23.66,18.83-34.35,23.9-1.2,.58-2.1,1.13-2.89,1.66-1.27,.85-2.96,.7-4.07-.35l-5.21-4.92Zm-42.22-.96c-1.35-.99-1.31-2.99,.04-3.98,7.98-5.85,13.34-13.71,16.61-20.43,3.88-7.76,6.74-25.19,8.61-37.02,.42-2.67,.61-4.73,.64-6.5,.03-1.8,1.46-3.26,3.26-3.26h10.2c1.61,0,2.79,1.52,2.39,3.08-.48,1.82-1.05,4.21-1.41,6.48-1.84,11.65-5.26,31.43-9.24,41-4.33,10.17-10.88,18.96-19.31,26.15-1.17,1-2.87,1.07-4.11,.16l-7.69-5.69Z"/></g></svg>